<?xml version="1.0" encoding="UTF-8"?>
<!DOCTYPE svg PUBLIC "-//W3C//DTD SVG 1.0//EN" "http://www.w3.org/TR/2001/REC-SVG-20010904/DTD/svg10.dtd">
<!-- Creator: CorelDRAW X8 -->
<svg xmlns="http://www.w3.org/2000/svg" xml:space="preserve" width="884px" height="861px" version="1.0" style="shape-rendering:geometricPrecision; text-rendering:geometricPrecision; image-rendering:optimizeQuality; fill-rule:evenodd; clip-rule:evenodd"
viewBox="0 0 720 702"
 xmlns:xlink="http://www.w3.org/1999/xlink">
 <defs>
  <style type="text/css">
   <![CDATA[
    .fil0 {fill:#8E31F7}
   ]]>
  </style>
 </defs>
 <g id="Capa_x0020_1">
  <metadata id="CorelCorpID_0Corel-Layer"/>
  <path class="fil0" d="M26 516c99,207 311,101 345,19l185 -456c13,-14 24,-3 23,8 -22,55 -61,158 -103,262 -32,81 -58,162 -94,218 -22,34 -51,59 -73,71 -91,47 -231,45 -309,-104 -2,-19 5,-27 26,-18z"/>
  <path class="fil0" d="M358 523l15 -37 -183 -479c-5,-7 -24,-15 -25,10l193 506z"/>
  <path class="fil0" d="M404 561l33 88 258 -647c14,-5 24,-2 25,12l-269 680c-8,13 -21,8 -26,-1l-42 -104 21 -28z"/>
 </g>
</svg>
